name C:\Users\u0150099\Documents\master_thesis\3dpredictsim\Results\debug\Fal_s1_mtjc2_sc_cspx10_oy2_ATx70_MTc2_MTPm_k1_d01_MTJm_nl_MG_exp5_table_d01_PF_Gefen2002_ls146_FDB2_lTs125_Fpsl10_ig21_wAk5e+04_wa2e+03_wpMnD1e+03.mot
datacolumns 130
datarows 4
range 0.52021343 0.55142624
endheader
time	pelvis_tilt	pelvis_list	pelvis_rotation	pelvis_tx	pelvis_ty	pelvis_tz	hip_flexion_l	hip_adduction_l	hip_rotation_l	hip_flexion_r	hip_adduction_r	hip_rotation_r	knee_angle_l	knee_angle_r	ankle_angle_l	ankle_angle_r	subtalar_angle_l	subtalar_angle_r	mtj_angle_l	mtj_angle_r	mtp_angle_l	mtp_angle_r	lumbar_extension	lumbar_bending	lumbar_rotation	arm_flex_l	arm_add_l	arm_rot_l	arm_flex_r	arm_add_r	arm_rot_r	elbow_flex_l	elbow_flex_r	pro_sup_l	pro_sup_r	glut_med1_l/activation	glut_med2_l/activation	glut_med3_l/activation	glut_min1_l/activation	glut_min2_l/activation	glut_min3_l/activation	semimem_l/activation	semiten_l/activation	bifemlh_l/activation	bifemsh_l/activation	sar_l/activation	add_long_l/activation	add_brev_l/activation	add_mag1_l/activation	add_mag2_l/activation	add_mag3_l/activation	tfl_l/activation	pect_l/activation	grac_l/activation	glut_max1_l/activation	glut_max2_l/activation	glut_max3_l/activation	iliacus_l/activation	psoas_l/activation	quad_fem_l/activation	gem_l/activation	peri_l/activation	rect_fem_l/activation	vas_med_l/activation	vas_int_l/activation	vas_lat_l/activation	med_gas_l/activation	lat_gas_l/activation	soleus_l/activation	tib_post_l/activation	flex_dig_l/activation	flex_hal_l/activation	tib_ant_l/activation	per_brev_l/activation	per_long_l/activation	per_tert_l/activation	ext_dig_l/activation	ext_hal_l/activation	FDB_l/activation	ercspn_l/activation	intobl_l/activation	extobl_l/activation	glut_med1_r/activation	glut_med2_r/activation	glut_med3_r/activation	glut_min1_r/activation	glut_min2_r/activation	glut_min3_r/activation	semimem_r/activation	semiten_r/activation	bifemlh_r/activation	bifemsh_r/activation	sar_r/activation	add_long_r/activation	add_brev_r/activation	add_mag1_r/activation	add_mag2_r/activation	add_mag3_r/activation	tfl_r/activation	pect_r/activation	grac_r/activation	glut_max1_r/activation	glut_max2_r/activation	glut_max3_r/activation	iliacus_r/activation	psoas_r/activation	quad_fem_r/activation	gem_r/activation	peri_r/activation	rect_fem_r/activation	vas_med_r/activation	vas_int_r/activation	vas_lat_r/activation	med_gas_r/activation	lat_gas_r/activation	soleus_r/activation	tib_post_r/activation	flex_dig_r/activation	flex_hal_r/activation	tib_ant_r/activation	per_brev_r/activation	per_long_r/activation	per_tert_r/activation	ext_dig_r/activation	ext_hal_r/activation	FDB_r/activation	ercspn_r/activation	intobl_r/activation	extobl_r/activation	
          0.52021343	         -2.92977861	          1.39416015	         -2.85524215	          0.69188386	          0.90545036	          0.00374335	         31.52229495	          1.98892957	         -4.83423940	        -13.06662334	          1.48203196	          7.16093350	        -15.78576092	        -15.89396735	         12.22424046	         10.48140345	         10.95993881	         15.25212359	         -0.64666207	          3.31864401	          3.83505353	          9.22963567	         -4.38033414	         -1.25010021	          1.82999047	         -4.95543861	        -13.48161670	          3.90354674	          3.46322165	        -13.94101965	         19.38152965	         28.96188387	         40.29725545	         86.51662706	         86.51662706	          0.05000025	          0.05000009	          0.05866995	          0.05000005	          0.05000008	          0.05000033	          0.31172406	          0.06884391	          0.36679878	          0.05151864	          0.05000248	          0.08591698	          0.14854248	          0.14669176	          0.17091420	          0.18141117	          0.05866942	          0.05010609	          0.10421217	          0.05866812	          0.09001501	          0.14688605	          0.05000010	          0.05000011	          0.13853955	          0.05000931	          0.05000021	          0.05000009	          0.05118849	          0.05019556	          0.05000366	          0.06953344	          0.05000102	          0.05000007	          0.17705864	          0.06884340	          0.05000296	          0.34031641	          0.05189876	          0.06494830	          0.16138983	          0.57079233	          0.26770517	          0.25098668	          0.06193885	          0.07783402	          0.09286069	          0.16688216	          0.08078201	          0.05867018	          0.31135281	          0.21178237	          0.11669794	          0.05000045	          0.05000006	          0.05000005	          0.05000040	          0.12417583	          0.05000003	          0.05000003	          0.05000007	          0.05000020	          0.05000010	          0.59749859	          0.05000028	          0.05000013	          0.05000137	          0.05000048	          0.05000017	          0.38171086	          0.73704295	          0.05000003	          0.05000017	          0.05000009	          0.46029210	          0.14781863	          0.15741000	          0.12815142	          0.37096633	          0.48958415	          0.25493375	          0.78915270	          0.46032821	          0.65485727	          0.05000000	          0.06884412	          0.21588316	          0.05000004	          0.05000002	          0.12000396	          0.60104249	          0.05000001	          0.05000000	          0.05000000	
          0.53061770	         -2.93007581	          1.55630579	         -3.10645061	          0.70804745	          0.90406027	          0.00332412	         31.31827023	          2.36383071	         -4.91710931	        -13.68271551	          1.09887726	          7.33216214	        -16.10614847	        -16.44325930	         11.66208366	          9.29151581	         11.18590103	         15.64960675	         -0.28945314	          3.15507674	          3.20590723	         11.37032382	         -4.21366075	         -1.47573324	          1.93083660	         -5.59323570	        -13.45159729	          3.17658400	          3.00841874	        -13.92281044	         19.26275005	         28.37430344	         41.94579851	         86.51662706	         86.51662706	          0.05867021	          0.05867022	          0.05000007	          0.05867024	          0.05867024	          0.05867015	          0.27298645	          0.05867027	          0.32485664	          0.05867022	          0.05000007	          0.18170459	          0.16780796	          0.12501420	          0.17182223	          0.17177245	          0.05000008	          0.05000127	          0.08881226	          0.05000072	          0.08150396	          0.16662272	          0.05000458	          0.06620410	          0.46324779	          0.25459868	          0.12026849	          0.05000001	          0.05000002	          0.05000002	          0.05000001	          0.06346273	          0.05000008	          0.05000000	          0.18447159	          0.05867021	          0.05867018	          0.34842000	          0.05000006	          0.10547710	          0.20926435	          0.62043776	          0.22814412	          0.21389619	          0.05278560	          0.06633179	          0.07913790	          0.14222051	          0.06884415	          0.05000002	          0.26534145	          0.18048542	          0.09945247	          0.05000167	          0.05000019	          0.05000015	          0.05000007	          0.10582531	          0.08944533	          0.05001138	          0.05000070	          0.05000308	          0.06582954	          0.54329983	          0.05000173	          0.05000017	          0.05000052	          0.05000039	          0.05000051	          0.32530205	          0.67891874	          0.05000002	          0.05000011	          0.05000072	          0.42352352	          0.17388248	          0.18811118	          0.12864539	          0.34443603	          0.47150870	          0.22997415	          0.75571851	          0.42229852	          0.61711613	          0.05000000	          0.05867043	          0.18398018	          0.05000003	          0.05000019	          0.10226991	          0.51222107	          0.05000000	          0.05000011	          0.06110635	
          0.54102197	         -2.92878761	          1.72738948	         -3.33842285	          0.72444490	          0.90269168	          0.00289104	         31.10870729	          2.69511137	         -4.97282068	        -14.19700931	          0.70559447	          7.48127079	        -17.09963282	        -17.14925925	         10.72244741	          7.93116399	         11.38930847	         16.10160563	          0.17753620	          2.94052595	          2.59262497	         13.72338905	         -4.03535265	         -1.71165406	          2.02264114	         -6.21824733	        -13.45512423	          2.71607774	          2.48222043	        -13.88853635	         19.05033568	         27.73229627	         43.60791267	         86.51662706	         86.51662706	          0.05000000	          0.05000001	          0.12069876	          0.05000002	          0.05000003	          0.05000003	          0.23264481	          0.05000005	          0.27684968	          0.05000001	          0.08078182	          0.15485279	          0.28656697	          0.29014551	          0.16516631	          0.20569134	          0.05000084	          0.08797627	          0.07568773	          0.05000019	          0.12876875	          0.20670284	          0.06884396	          0.06884405	          0.68307352	          0.21697440	          0.10249543	          0.06884394	          0.12807431	          0.12993387	          0.10830577	          0.06884390	          0.06884405	          0.06884387	          0.17439782	          0.05000005	          0.05000005	          0.44998980	          0.10606742	          0.08988981	          0.36463504	          0.62603248	          0.20585321	          0.18228684	          0.05000000	          0.05652935	          0.06744299	          0.12120333	          0.05867049	          0.05867027	          0.22612960	          0.15381351	          0.08475551	          0.05867012	          0.05867021	          0.05867020	          0.05867031	          0.09018667	          0.21853132	          0.10729051	          0.05867231	          0.05867060	          0.05867032	          0.46301251	          0.05000188	          0.05867472	          0.05867073	          0.05867051	          0.05867042	          0.27722927	          0.62807611	          0.05867084	          0.05867072	          0.05867021	          0.44337473	          0.14818654	          0.17503179	          0.19345850	          0.31724445	          0.45649283	          0.21266310	          0.68531658	          0.35989175	          0.52591944	          0.05000000	          0.05000018	          0.15679178	          0.05000004	          0.05000000	          0.08715657	          0.43652558	          0.05766909	          0.06884394	          0.06884367	
          0.55142624	         -2.92708279	          1.92439126	         -3.55508565	          0.74104556	          0.90143273	          0.00247509	         30.78839323	          2.95546170	         -4.91808443	        -14.61889303	          0.28894367	          7.60496106	        -18.25354413	        -17.97057624	          9.76175555	          6.40509727	         11.59070922	         16.53278556	          0.53088410	          2.57664438	          1.98688830	         16.30483841	         -3.84478477	         -1.97542382	          2.10750238	         -6.81863198	        -13.49070938	          2.49888007	          1.89973731	        -13.83932204	         18.80298417	         27.01824257	         45.25713591	         86.51662706	         86.51662706	          0.33705778	          0.34475754	          0.41053855	          0.37444655	          0.26391025	          0.25567806	          0.19826487	          0.15161680	          0.23593718	          0.09872027	          0.06884403	          0.13196884	          0.24421845	          0.24726815	          0.14075829	          0.25152244	          0.05000011	          0.07497549	          0.21755096	          0.21416285	          0.21016115	          0.24109270	          0.05867037	          0.05867038	          0.58212966	          0.18491021	          0.14993908	          0.05867026	          0.10914763	          0.11073238	          0.09230046	          0.05867023	          0.05867035	          0.05867020	          0.22479334	          0.06069962	          0.05932892	          0.52416709	          0.09039290	          0.10166374	          0.47842053	          0.75716426	          0.53109444	          0.51717966	          0.06811693	          0.09478966	          0.05747634	          0.18716372	          0.05000024	          0.05000005	          0.29914724	          0.13108315	          0.07223045	          0.05000026	          0.05000004	          0.05000003	          0.05000011	          0.07685911	          0.21225869	          0.09143529	          0.05000183	          0.05000051	          0.05000019	          0.54881511	          0.08078321	          0.05000386	          0.05000060	          0.05000033	          0.05000022	          0.24433729	          0.71844134	          0.05000053	          0.05000044	          0.05000002	          0.37785330	          0.13235136	          0.14916590	          0.16486944	          0.27036240	          0.38903281	          0.18123597	          0.58404123	          0.30670737	          0.44819965	          0.07704882	          0.05000002	          0.14774783	          0.05000001	          0.05000000	          0.07427667	          0.37201629	          0.08819583	          0.05867026	          0.05867004	
